PathFileType	4	(X/Y/Z)	C:/Users/beibeiliu/ov580/test_trc/User2\sequence.8_training_dense_left.trc
DataRate	CameraRate	NumFrames	NumMarkers	Units	OrigDataRate	OrigDataStartFrame	OrigNumFrames
120	120	14	19	mm	120	258	343
Frame#	Time	ThumbCMC			ThumbMCP			ThumbIP			ThumbTip			IndexMCP			IndexPIP			IndexTip			MiddleMCP			MiddlePIP			MiddleTip			RingMCP			RingPIP			RingTip			PinkyMCP			PinkyPIP			PinkyTip			BackHand1			BackHand2			BackHand3	
		X0	Y0	Z0	X1	Y1	Z1	X2	Y2	Z2	X3	Y3	Z3	X4	Y4	Z4	X5	Y5	Z5	X6	Y6	Z6	X7	Y7	Z7	X8	Y8	Z8	X9	Y9	Z9	X10	Y10	Z10	X11	Y11	Z11	X12	Y12	Z12	X13	Y13	Z13	X14	Y14	Z14	X15	Y15	Z15	X16	Y16	Z16	X17	Y17	Z17	X18	Y18	Z18	
257	2.14167	-272.512	-30.6123	155.945	-302.902	-32.2196	140.35	-322.262	-31.5947	116.396	-332.937	-30.508	88.5259	-288.758	-72.4696	78.4076	-299.757	-67.1251	48.6033	-307.993	-48.399	27.871	-264.127	-73.4033	62.448	-274.689	-64.1647	26.1298	-289.036	-40.8294	5.86344	-238.479	-60.4633	56.6145	-248.233	-53.0593	26.4687	-267.035	-32.0854	8.70622	-216.06	-41.086	56.967	-227.703	-33.0284	29.3108	-238.017	-20.8646	7.88129	-218.826	-54.9578	109.198	-204.264	-47.9503	142.11	-241.896	-56.94	136.13	
258	2.15	-271.958	-34.1427	153.136	-298.958	-29.5634	141	-326.944	-28.0768	113.002	-332.611	-23.1049	87.8439	-284.609	-60.3342	71.3648	-295.636	-51.0586	43.8343	-302.212	-26.6725	25.5723	-256.595	-60.589	55.6974	-271.921	-46.0008	23.2701	-277.406	-14.6773	4.35407	-236.482	-48.1593	50.6477	-246.508	-35.5164	24.1049	-258.022	-7.16467	7.0443	-213.88	-32.9703	56.5055	-219.541	-17.8501	30.0051	-230.212	-3.66346	15.7803	-214.863	-53.944	110.48	-208.457	-52.1299	142.185	-242.555	-57.5465	136.107	
259	2.15833	-274.287	-34.8999	151.04	-301.685	-28.8818	137.941	-322.435	-22.8397	108.379	-332.966	-12.8324	86.365	-280.806	-48.4733	67.0911	-295.693	-34.0644	43.5784	-298.263	-5.14474	28.3335	-255.661	-47.0485	53.0312	-264.429	-28.4361	25.7223	-273.916	8.8608	11.0158	-231.599	-35.0968	49.572	-239.303	-19.1675	28.2682	-254.729	11.8909	15.6734	-209.992	-24.0847	63.3147	-213.215	-3.84983	37.9428	-227.901	13.8659	21.1314	-211.983	-52.6799	110.62	-207.786	-52.5844	142.499	-246.957	-59.7079	134.659	
260	2.16667	-271.738	-33.1383	150.269	-301.014	-26.6309	137.366	-320.796	-17.4503	110.526	-328.174	-6.11683	88.7291	-279.003	-41.17	63.8206	-286.39	-24.9502	42.5467	-293.296	5.77515	29.5876	-254.237	-39.8976	53.7579	-261.987	-18.301	27.1027	-269.616	19.1946	15.4078	-232.832	-31.3206	53.9515	-239.441	-12.4368	30.1927	-249.271	19.2525	21.1955	-207.398	-17.1036	58.8896	-212.366	-0.664845	41.2905	-225.738	22.4314	23.6734	-211.462	-49.1513	109.932	-205.651	-52.145	141.856	-241.42	-55.7712	133.247	
261	2.175	-269.879	-31.1396	152.812	-300.369	-23.49	136.902	-320.029	-15.0839	106.938	-327.655	-5.47451	84.7118	-282.59	-43.2727	65.5546	-291.484	-25.3677	39.6806	-289.417	3.67157	26.0413	-253.658	-42.1587	51.7073	-258.872	-19.1874	23.8094	-264.429	12.7784	13.8639	-229.031	-33.1155	52.936	-234.853	-12.9215	25.9816	-249.142	15.4506	17.8803	-206.76	-21.0659	62.1544	-211.22	-1.9541	39.5361	-224.896	19.9605	23.9229	-214.509	-48.5349	106.67	-204.419	-51.6208	138.91	-246.389	-56.6867	135.148	
262	2.18333	-270.686	-29.8487	151.419	-297.441	-23.1764	133.076	-319.228	-14.6723	110.816	-328.393	-7.13748	79.3041	-278.67	-49.6666	64.2302	-292.591	-35.4	37.827	-291.502	-7.76468	19.3027	-253.25	-49.1894	54.6859	-261.895	-32.4206	22.2721	-265.427	1.74505	6.2708	-229.285	-40.254	50.7061	-235.858	-23.4772	23.0578	-249.18	1.56721	11.3214	-203.894	-26.79	58.3569	-209.486	-8.39164	32.8223	-219.532	6.29263	17.8165	-216.75	-51.8058	112.345	-203.894	-50.8583	144.434	-242.36	-54.5093	135.448	
263	2.19167	-274.526	-27.4307	152.432	-302.681	-21.8628	132.249	-322.297	-15.18	105.021	-326.709	-9.41046	79.0823	-283.415	-56.2719	68.0925	-293.167	-47.4108	37.7993	-297.484	-25.4702	18.076	-255.228	-57.8862	56.4009	-262.601	-44.7373	20.4125	-268.697	-12.4917	-0.333471	-233.394	-50.8064	53.3919	-234.427	-39.3604	24.9334	-248.871	-14.4463	6.144	-206.732	-34.7141	60.8904	-211.053	-21.4207	31.352	-217.746	-4.95333	11.215	-215.607	-52.8933	110.846	-206.166	-49.7052	145.06	-248.976	-55.7632	134.771	
264	2.2	-271.871	-24.3192	149.625	-299.259	-16.4946	133.727	-322.449	-12.9709	100.776	-327.335	-7.3798	77.7065	-280.917	-61.1868	69.439	-294.217	-57.0798	43.6981	-295.998	-38.594	16.7814	-254.996	-65.7887	54.8799	-264.869	-56.3	23.3676	-269.377	-29.7621	-1.01327	-230.704	-58.4077	56.7791	-237.215	-50.9584	25.3511	-245.911	-28.7456	4.25201	-204.864	-43.3484	59.4215	-206.3	-35.2034	34.3924	-214.111	-20.9656	13.4271	-221.352	-55.6132	114.282	-210.6	-51.2533	144.596	-248.598	-55.8883	139.724	
265	2.20833	-276.361	-21.0029	143.771	-296.615	-11.0697	127.108	-318.57	-5.75381	98.8132	-320.586	-3.13428	71.1346	-279.259	-60.2382	72.2847	-289.975	-57.7913	37.3545	-288.546	-41.6379	14.0741	-256.421	-68.6701	60.3593	-257.628	-64.0772	25.4005	-260.063	-38.1785	-3.35065	-232.017	-64.9923	56.4033	-229.109	-59.3944	26.1476	-236.185	-40.0105	3.35414	-203.088	-51.6379	64.8501	-201.986	-44.1092	32.9752	-205.11	-31.4181	10.3913	-220.761	-59.9492	118.114	-213.799	-55.2421	146.54	-254.302	-54.3892	139.544	
266	2.21667	-274.188	-14.2428	138.89	-291.854	-3.90409	117.699	-308.617	3.8082	88.8769	-308.291	5.40171	60.5554	-275.77	-56.8982	67.901	-283.082	-55.0276	36.363	-277.49	-37.4618	9.95044	-250.905	-69.5913	58.641	-251.884	-64.4033	22.5993	-246.545	-38.4675	-7.26921	-228.723	-68.9799	60.0286	-223.632	-65.7159	29.4097	-222.295	-44.1199	-0.92402	-200.787	-59.4353	66.2599	-193.116	-55.1174	37.4189	-195.164	-44.1948	13.6146	-225.035	-63.0725	117.262	-214.918	-54.9357	149.865	-255.647	-49.7958	138.509	
267	2.225	-270.653	-6.00281	134.269	-287.815	7.69816	109.835	-293.623	15.7983	79.9227	-293.162	16.946	49.2515	-273.177	-50.1697	62.5012	-272.013	-46.0006	26.6202	-256.761	-29.5519	2.04945	-250.491	-66.7679	53.1196	-245.212	-62.4162	21.7062	-234.37	-39.6455	-7.52364	-223.49	-71.5937	62.5826	-218.642	-69.345	28.286	-211.265	-52.6304	3.94828	-200.317	-65.3853	71.9918	-189.265	-64.5648	44.1945	-183.374	-56.9321	19.6717	-224.15	-64.4516	119.246	-220.294	-55.1703	152.983	-256.423	-44.5345	135.417	
268	2.23333	-267.431	3.34473	129.976	-276.008	16.585	102.439	-282.683	26.1236	66.4016	-273.898	26.5667	43.2043	-269.437	-40.8859	51.927	-263.577	-40.0887	24.8193	-242.072	-25.4066	-2.0085	-246.887	-63.5341	52.1592	-235.564	-60.3151	16.4893	-221.227	-43.4424	-5.67127	-222.43	-72.3153	61.7216	-215.426	-71.3174	31.6941	-203.17	-56.9531	8.18657	-196.053	-72.0278	77.2136	-186.909	-72.643	50.338	-175.435	-64.8627	23.6815	-229.989	-62.192	120.123	-229.704	-51.9436	154.045	-259.248	-40.4668	128.826	
269	2.24167	-264.199	14.0365	126.021	-269.352	28.3215	94.1658	-266.395	33.7867	61.8865	-256.04	29.6384	32.214	-263.971	-34.9339	51.8893	-254.58	-37.1131	20.9179	-234.628	-25.8589	-2.36392	-246.584	-61.2164	55.1475	-235.516	-63.1601	21.2296	-212.996	-49.8586	-4.40019	-229.252	-71.5999	59.9898	-215.569	-75.0159	30.817	-195.352	-63.8956	6.63775	-202.73	-74.433	82.7029	-188.311	-80.417	56.3157	-175.352	-78.8104	34.423	-235.354	-56.4303	120.589	-240.556	-47.3766	152.023	-263.655	-27.0666	128.326	
270	2.25	-256.083	16.8693	120.044	-259.543	34.5374	87.2735	-254.755	39.1282	53.6995	-244.137	33.0556	29.4699	-265.863	-32.7471	48.409	-254.552	-38.3144	19.6253	-234.501	-32.8246	-3.51417	-255.581	-58.8573	50.1778	-243.133	-66.3309	20.6453	-216.03	-56.7599	-7.33877	-237.401	-72.3286	62.903	-224.652	-82.987	37.7798	-204.925	-72.9178	6.92998	-211.884	-76.7279	84.1212	-200.848	-84.6893	59.6821	-183.506	-90.72	33.6558	-242.592	-53.5795	119.567	-243.384	-41.6793	150.706	-266.067	-22.4438	125.193	
